HIERARCHY
ROOT Hips
{
	OFFSET -0.001795 -0.223333 0.028219
	CHANNELS 6 Xposition Yposition Zposition Zrotation Yrotation Xrotation 
	JOINT LeftUpLeg
	{
		OFFSET 0.069520 -0.091406 -0.006815
		CHANNELS 3 Zrotation Yrotation Xrotation
		JOINT LeftLeg
		{
			OFFSET 0.034277 -0.375199 -0.004496
			CHANNELS 3 Zrotation Yrotation Xrotation
			JOINT LeftFoot
			{
				OFFSET -0.013596 -0.397961 -0.043693
				CHANNELS 3 Zrotation Yrotation Xrotation
				JOINT LeftToe
				{
					OFFSET 0.026358 -0.055791 0.119288
					CHANNELS 3 Zrotation Yrotation Xrotation
					End Site
					{
						OFFSET 0.000000 0.000000 0.000000
					}
				}
			}
		}
	}
	JOINT RightUpLeg
	{
		OFFSET -0.067670 -0.090522 -0.004320
		CHANNELS 3 Zrotation Yrotation Xrotation
		JOINT RightLeg
		{
			OFFSET -0.038290 -0.382569 -0.008850
			CHANNELS 3 Zrotation Yrotation Xrotation
			JOINT RightFoot
			{
				OFFSET 0.015774 -0.398415 -0.042312
				CHANNELS 3 Zrotation Yrotation Xrotation
				JOINT RightToe
				{
					OFFSET -0.025372 -0.048144 0.123348
					CHANNELS 3 Zrotation Yrotation Xrotation
					End Site
					{
						OFFSET 0.000000 0.000000 0.000000
					}
				}
			}
		}
	}
	JOINT Spine
	{
		OFFSET -0.002533 0.108963 -0.026696
		CHANNELS 3 Zrotation Yrotation Xrotation
		JOINT Spine1
		{
			OFFSET 0.005487 0.135180 0.001092
			CHANNELS 3 Zrotation Yrotation Xrotation
			JOINT Spine2
			{
				OFFSET 0.001457 0.052922 0.025425
				CHANNELS 3 Zrotation Yrotation Xrotation
				JOINT Neck
				{
					OFFSET -0.002778 0.213870 -0.042857
					CHANNELS 3 Zrotation Yrotation Xrotation
					JOINT Head
					{
						OFFSET 0.005152 0.064970 0.051349
						CHANNELS 3 Zrotation Yrotation Xrotation
						End Site
						{
							OFFSET 0.000000 0.000000 0.000000
						}
					}
				}
				JOINT LeftShoulder
				{
					OFFSET 0.078845 0.121749 -0.034090
					CHANNELS 3 Zrotation Yrotation Xrotation
					JOINT LeftArm
					{
						OFFSET 0.090977 0.030469 -0.008868
						CHANNELS 3 Zrotation Yrotation Xrotation
						JOINT LeftForeArm
						{
							OFFSET 0.259612 -0.012772 -0.027456
							CHANNELS 3 Zrotation Yrotation Xrotation
							JOINT LeftHand
							{
								OFFSET 0.249234 0.008986 -0.001171
								CHANNELS 3 Zrotation Yrotation Xrotation
								End Site
								{
									OFFSET 0.000000 0.000000 0.000000
								}
							}
						}
					}
				}
				JOINT RightShoulder
				{
					OFFSET -0.081759 0.118833 -0.038615
					CHANNELS 3 Zrotation Yrotation Xrotation
					JOINT RightArm
					{
						OFFSET -0.096012 0.032551 -0.009143
						CHANNELS 3 Zrotation Yrotation Xrotation
						JOINT RightForeArm
						{
							OFFSET -0.253742 -0.013329 -0.021401
							CHANNELS 3 Zrotation Yrotation Xrotation
							JOINT RightHand
							{
								OFFSET -0.255298 0.007772 -0.005559
								CHANNELS 3 Zrotation Yrotation Xrotation
								End Site
								{
									OFFSET 0.000000 0.000000 0.000000
								}
							}
						}
					}
				}
			}
		}
	}
}
MOTION
Frames: 16
Frame Time: 0.050000
0.000000 0.938827 0.000000 -1.642919 -13.741617 0.110686 7.599831 0.015442 -14.347704 -4.374920 1.183438 16.046066 5.143132 11.267624 7.742219 0.000000 0.000000 0.000000 -3.288545 1.600934 -16.970806 4.039276 1.955821 38.198215 -1.816436 -3.528585 -1.810688 0.000000 0.000000 0.000000 3.317587 -0.862028 16.208821 -4.275757 1.306815 -22.521596 -4.701600 1.377644 27.552088 7.098576 -4.590077 -21.212476 0.000000 0.000000 0.000000 -12.376183 -5.511217 3.615883 -49.764964 -7.117883 -6.408129 -3.829923 -32.533991 3.759798 0.000000 0.000000 0.000000 21.853192 0.772091 -2.877809 55.249898 1.386630 -7.135692 6.034344 30.884049 2.655308 0.000000 0.000000 0.000000 
-0.007978 0.936475 -0.010164 -1.184152 -11.492849 1.118921 8.882883 0.164912 -17.358229 -5.892826 1.569911 17.009202 3.793978 9.020300 7.690768 0.000000 0.000000 0.000000 -2.614225 1.539157 -16.165686 1.207382 3.009917 39.306424 0.328402 1.489627 -0.897229 0.000000 0.000000 0.000000 2.227902 -0.721751 14.867694 -4.062686 1.306689 -22.021065 -4.276992 2.154553 26.586733 7.479083 -4.481649 -20.817796 0.000000 0.000000 0.000000 -12.961212 -4.937945 2.985338 -50.278164 -5.254358 -6.981181 -2.489388 -31.739395 3.084585 0.000000 0.000000 0.000000 21.635956 -0.392396 -2.848889 55.398954 0.980016 -7.406813 6.382142 33.338599 3.199598 0.000000 0.000000 0.000000 
-0.017579 0.931568 -0.022081 0.372036 -5.060501 -0.429058 7.151354 -0.399355 -18.382284 -5.059138 1.031277 18.334011 2.692746 7.580549 7.755765 0.000000 0.000000 0.000000 -2.751393 0.920139 -10.695303 0.490511 1.955515 34.838625 0.000753 3.226326 -4.827699 0.000000 0.000000 0.000000 2.859431 -0.925749 15.250841 -5.183077 1.823863 -20.334707 -4.377291 2.784523 26.419066 8.073604 -4.078272 -21.421451 0.000000 0.000000 0.000000 -13.559765 -8.556365 3.846685 -48.947649 -6.585802 -6.090292 -1.040143 -30.851586 2.134109 0.000000 0.000000 0.000000 20.583860 -3.338772 -2.954470 57.607322 4.161660 -6.538940 3.845932 33.303691 3.058342 0.000000 0.000000 0.000000 
-0.027978 0.927091 -0.037985 0.651301 -2.889921 -1.216739 7.730026 -0.406637 -19.858083 -6.081910 1.220550 18.933390 2.345022 7.412420 8.878267 0.000000 0.000000 0.000000 -2.463196 0.750610 -8.710184 0.875786 1.429636 33.550637 -1.438503 1.160668 -8.331647 0.000000 0.000000 0.000000 3.879811 -1.187232 16.602832 -6.216539 2.187652 -20.303037 -4.487564 5.988219 26.583696 8.806155 -3.883763 -21.004888 0.000000 0.000000 0.000000 -12.484117 -8.826338 3.045983 -49.137062 -6.735254 -5.798530 -0.291416 -31.671546 1.607191 0.000000 0.000000 0.000000 21.675022 -3.176547 -1.608273 55.365088 6.180944 -5.818817 2.917094 34.442053 3.381395 0.000000 0.000000 0.000000 
-0.037602 0.924412 -0.057466 0.921251 1.374572 -1.718013 7.758337 -0.666420 -22.201154 -7.340030 1.352970 20.217332 2.809486 9.054424 10.805808 0.000000 0.000000 0.000000 -2.026241 0.634449 -7.347950 1.899805 0.395019 30.618982 -3.020852 -3.507612 -10.302685 0.000000 0.000000 0.000000 4.325216 -1.485792 18.263758 -6.106345 2.285249 -20.046005 -3.969045 8.352617 26.724538 8.782508 -2.775498 -22.431392 0.000000 0.000000 0.000000 -14.081953 -9.793540 2.370613 -47.455401 -8.598272 -4.456341 1.197451 -31.492283 0.672403 0.000000 0.000000 0.000000 21.782374 -2.423140 0.278809 53.539270 9.832260 -4.521794 -0.059348 31.944117 2.595248 0.000000 0.000000 0.000000 
-0.045225 0.924253 -0.078466 0.651730 4.915232 -1.094430 8.520380 -0.810318 -24.072755 -8.561595 1.408091 18.082500 3.219347 10.714100 13.416249 0.000000 0.000000 0.000000 -1.430691 0.775383 -8.838944 3.209143 -0.547918 30.523199 -3.703450 -6.353088 -10.663198 0.000000 0.000000 0.000000 5.669075 -1.955041 19.368196 -6.307567 2.402144 -20.485322 -3.139516 9.706010 26.511126 7.780234 -1.407600 -22.910589 0.000000 0.000000 0.000000 -15.565898 -9.711355 1.291859 -47.698675 -8.055450 -4.192957 0.341708 -32.490050 0.542920 0.000000 0.000000 0.000000 19.082827 -2.025841 1.209379 51.920888 11.640685 -3.711220 -0.063695 31.457739 2.685523 0.000000 0.000000 0.000000 
-0.050287 0.928211 -0.098986 1.471404 8.460791 -0.129834 8.431793 -1.100585 -24.781283 -10.748574 1.578620 13.754991 5.640850 15.245737 16.113540 0.000000 0.000000 0.000000 -1.766353 0.772670 -9.406841 3.750247 -1.121445 28.864381 -4.257650 -9.152628 -9.780441 0.000000 0.000000 0.000000 6.101905 -2.163537 19.270715 -7.050306 2.676014 -20.218704 -2.319647 10.535741 26.794643 9.071526 -1.645032 -23.620835 0.000000 0.000000 0.000000 -16.664077 -10.662863 0.781632 -47.383620 -7.857192 -3.819582 0.655734 -32.051807 0.132675 0.000000 0.000000 0.000000 19.546280 -2.226183 1.855578 49.188309 13.412555 -3.288685 -2.329838 30.556652 2.110031 0.000000 0.000000 0.000000 
-0.052533 0.933588 -0.117826 2.059234 10.995505 0.545349 9.329198 -1.070838 -23.941163 -13.653336 1.813730 10.806355 9.847131 21.399404 18.286241 0.000000 0.000000 0.000000 -1.592942 0.773129 -9.486257 3.900687 -1.373558 27.273386 -4.711236 -11.323127 -8.032933 0.000000 0.000000 0.000000 6.272993 -2.326749 19.483885 -6.151590 2.443111 -21.165219 -2.374689 11.425602 27.149635 9.387151 -1.320847 -24.213055 0.000000 0.000000 0.000000 -17.040263 -10.386329 -0.143477 -47.579446 -6.666207 -3.989913 -0.264588 -32.000470 0.118997 0.000000 0.000000 0.000000 18.801206 -2.218183 2.320554 48.487243 13.976200 -3.139232 -2.515433 30.216791 2.107007 0.000000 0.000000 0.000000 
-0.052114 0.939210 -0.134248 2.566046 13.297881 1.401334 9.746869 -1.125118 -23.302136 -15.425168 1.904412 10.351141 13.578133 26.195436 20.214824 0.000000 0.000000 0.000000 -2.273635 0.693615 -9.451327 4.234071 -1.524632 24.269161 -5.097427 -12.944423 -6.372921 0.000000 0.000000 0.000000 6.753709 -2.466672 19.098800 -6.311581 2.520958 -21.030690 -2.053322 11.321289 26.953979 9.916371 -1.565969 -23.645928 0.000000 0.000000 0.000000 -16.698252 -10.916519 -0.213956 -47.699717 -5.847536 -4.149212 -1.014695 -30.871402 0.195656 0.000000 0.000000 0.000000 18.499946 -3.338132 1.881346 47.893578 14.376170 -2.991374 -1.990730 29.700238 2.241703 0.000000 0.000000 0.000000 
-0.049344 0.943160 -0.147975 3.235386 16.117328 2.331353 10.740025 -1.084699 -21.726968 -16.756640 1.919188 10.812806 16.773005 29.924240 21.043756 0.000000 0.000000 0.000000 -3.131341 0.570702 -9.170694 4.572026 -1.625558 20.972101 -6.052938 -15.961184 -4.496154 0.000000 0.000000 0.000000 7.076207 -2.522619 18.306397 -6.187076 2.534235 -20.939454 -2.282873 10.642816 26.865010 10.956991 -2.150830 -23.379486 0.000000 0.000000 0.000000 -17.000635 -11.234894 -0.480083 -47.406572 -4.183246 -4.531650 -1.074074 -30.830340 0.088212 0.000000 0.000000 0.000000 18.743106 -4.259164 1.609976 47.254765 14.257165 -3.117419 -1.630731 30.162778 2.453711 0.000000 0.000000 0.000000 
-0.044681 0.945738 -0.159449 3.958769 18.331317 3.135170 11.750347 -1.013374 -19.673444 -16.957910 1.867827 12.061149 17.565566 30.785131 21.049907 0.000000 0.000000 0.000000 -4.243243 0.423175 -8.923711 5.078561 -1.777241 18.888365 -6.649287 -17.606113 -3.126301 0.000000 0.000000 0.000000 7.072164 -2.470039 17.477579 -6.125787 2.555577 -20.809037 -2.435991 10.182872 26.690855 11.269915 -2.279026 -23.074372 0.000000 0.000000 0.000000 -16.966805 -11.373676 -0.719043 -47.360069 -3.385576 -4.674998 -1.511779 -29.596349 0.127343 0.000000 0.000000 0.000000 19.569470 -5.351161 1.302862 47.099314 13.884222 -3.367362 -0.711473 30.083095 2.731283 0.000000 0.000000 0.000000 
-0.038158 0.946783 -0.169441 4.333949 20.057101 3.924626 13.463952 -0.923463 -17.364878 -16.412765 1.713937 12.771587 17.562173 30.670256 21.317502 0.000000 0.000000 0.000000 -5.067232 0.318506 -9.138461 5.202117 -1.806726 17.538097 -6.955524 -18.439667 -2.591570 0.000000 0.000000 0.000000 7.280326 -2.479557 16.879068 -6.027250 2.569433 -20.370800 -2.968354 9.966404 26.356858 11.455446 -2.478875 -22.120777 0.000000 0.000000 0.000000 -16.524525 -11.402164 -0.880617 -46.946871 -2.903748 -4.676767 -1.368335 -29.390892 -0.017383 0.000000 0.000000 0.000000 19.635632 -6.215702 0.959203 48.024640 13.602833 -3.375942 0.517244 30.305638 3.149038 0.000000 0.000000 0.000000 
-0.029851 0.946886 -0.179032 4.675706 21.491013 4.718262 14.827494 -0.937367 -15.188391 -15.312425 1.457542 12.442593 17.122949 30.084578 21.335919 0.000000 0.000000 0.000000 -5.965497 0.210140 -10.470422 5.121263 -1.921894 18.067500 -7.047807 -18.509814 -1.950637 0.000000 0.000000 0.000000 7.091921 -2.349099 15.999083 -5.827533 2.547717 -20.076344 -3.094782 9.922480 26.801771 11.634178 -2.322375 -22.682030 0.000000 0.000000 0.000000 -16.440688 -11.768180 -0.960365 -47.458519 -2.925149 -4.697754 -0.658486 -28.768283 -0.259639 0.000000 0.000000 0.000000 19.195250 -6.551873 0.888191 49.095431 13.271279 -3.402384 1.531346 30.084362 3.423007 0.000000 0.000000 0.000000 
-0.019636 0.946450 -0.188864 4.723124 22.496844 4.787010 16.195710 -0.992112 -13.208261 -13.783574 1.227888 12.799935 15.954259 28.713473 21.595114 0.000000 0.000000 0.000000 -6.592462 0.098664 -10.450766 5.163858 -1.930322 17.397745 -7.250676 -18.990543 -1.603980 0.000000 0.000000 0.000000 7.170305 -2.385117 15.968733 -6.386695 2.713591 -19.691939 -2.635309 9.962160 26.731621 12.007115 -2.369547 -23.109809 0.000000 0.000000 0.000000 -15.856941 -13.017029 -0.382171 -48.266595 -2.961418 -4.801618 -0.184945 -29.186889 -0.460410 0.000000 0.000000 0.000000 19.707068 -7.021167 0.826403 49.561619 12.986071 -3.544167 2.217279 29.889984 3.600267 0.000000 0.000000 0.000000 
-0.007142 0.945193 -0.198847 4.647189 23.491955 5.263387 16.886269 -1.077795 -13.168104 -12.839118 1.066428 13.274535 13.993560 26.681470 20.552796 0.000000 0.000000 0.000000 -8.027833 -0.138578 -11.265489 5.924771 -2.236131 17.312937 -7.706105 -19.655753 -0.079855 0.000000 0.000000 0.000000 6.906511 -2.432056 16.309485 -6.309702 2.693399 -19.872809 -3.091731 9.989390 26.736910 12.507628 -2.426345 -23.819435 0.000000 0.000000 0.000000 -15.417478 -13.208444 -0.368398 -48.878965 -3.425603 -4.712746 0.730862 -29.390204 -0.789265 0.000000 0.000000 0.000000 20.586301 -7.081852 1.122493 49.466593 13.197365 -3.600793 2.390539 30.105823 3.701389 0.000000 0.000000 0.000000 
0.007952 0.943432 -0.208815 4.092255 24.136557 6.277595 17.636257 -1.167048 -13.734874 -12.368668 0.942558 11.643685 12.000497 24.577386 20.424532 0.000000 0.000000 0.000000 -9.217054 -0.351976 -12.202569 6.547601 -2.382202 16.447850 -7.904746 -19.706580 1.170717 0.000000 0.000000 0.000000 7.473732 -2.511528 15.801033 -7.265417 2.892578 -19.761147 -2.582097 10.151314 26.792282 11.945274 -1.910145 -23.959148 0.000000 0.000000 0.000000 -15.157376 -13.615511 -0.269545 -49.643401 -3.320846 -4.875513 1.852935 -30.262270 -1.216503 0.000000 0.000000 0.000000 20.871841 -6.936049 1.416721 49.990117 12.744807 -3.768810 1.919265 30.979255 3.772837 0.000000 0.000000 0.000000 
